:SAMPLES-PER-SECOND 30
:FULLY-SPECIFIED
:DEGREES
378
root  2.76859 38.2489 -7.77052 -176.307 -71.8217 165.05
RightUpLeg  -6.74757 5.65752 -9.70694
RightLeg  65.2095 2.24357 4.71265
RightFoot  2.54941 -0.980149 8.16261
RightToes  2.91037e-010 0 -3.6325e-017
Spine  13.2946 0.891502 -0.586377
Spine1  7.28238 1.38174 -5.57391
HEad  -9.2515 -3.18794 -0.905487
LeftShoulder1  0.903313 1.00593 -30.0773
LeftArm  9.38375 9.49207 -40.3161
LeftForeArm  13.8794 -19.2065 -5.57342
LeftHand  -0.043655 3.26538 1.44397
RightShoulder  -0.363063 -4.54543 27.7701
RightArm  23.2552 -0.875363 48.7818
RightForeArm  -2.77129 14.2233 7.76658
RightHand  -0.55035 3.14938 -7.71184
LeftUpLeg  -8.92183 4.6858 -8.14303
LeftLeg  24.2108 -1.71956 -0.500393
LeftFoot  -3.75042 -0.598127 9.34058
LeftToes  -7.53974e-010 3.3384e-011 -1.25048e-011
379
root  1.61808 38.5818 -7.93768 -176.992 -72.5941 165.936
RightUpLeg  -10.0409 5.55242 -8.8816
RightLeg  62.5415 1.79012 3.22768
RightFoot  1.52768 -0.723734 6.53273
RightToes  2.91037e-010 0 -3.6325e-017
Spine  13.2355 0.313815 -0.910773
Spine1  6.54211 0.529404 -4.70731
HEad  -8.58889 -3.74671 -0.569366
LeftShoulder1  0.850955 1.11654 -29.5516
LeftArm  11.2399 9.54395 -40.5104
LeftForeArm  12.0156 -21.8665 -4.62286
LeftHand  -0.0589081 2.98163 2.15136
RightShoulder  -0.407256 -4.67124 27.8818
RightArm  25.1571 -2.6869 47.7413
RightForeArm  -3.77474 15.786 7.24366
RightHand  -0.547403 3.22818 -7.6054
LeftUpLeg  -5.91404 5.00205 -7.79833
LeftLeg  22.0412 -2.54616 -0.929893
LeftFoot  -4.62151 -0.539729 9.6364
LeftToes  -7.53974e-010 3.3384e-011 -1.25048e-011
380
root  0.49458 38.837 -8.0964 -177.442 -73.0398 166.47
RightUpLeg  -12.431 5.30828 -8.38048
RightLeg  57.2443 1.35321 1.83741
RightFoot  -0.654081 -0.677882 7.17573
RightToes  2.91037e-010 0 -3.6325e-017
Spine  12.958 -0.0997483 -1.11254
Spine1  6.21553 -0.0157581 -4.12367
HEad  -8.35692 -4.37073 -0.0127563
LeftShoulder1  0.825708 1.15495 -29.0529
LeftArm  10.5868 9.37673 -40.5288
LeftForeArm  12.8644 -24.2666 -4.45582
LeftHand  -0.0533453 2.69278 1.70486
RightShoulder  -0.457319 -4.81233 28.0315
RightArm  26.5326 -3.93127 46.7291
RightForeArm  -4.76898 16.735 6.93992
RightHand  -0.54647 3.34352 -7.49836
LeftUpLeg  -2.93116 5.33563 -7.4576
LeftLeg  19.9878 -3.27185 -1.43269
LeftFoot  -5.49085 -0.453938 9.51084
LeftToes  -7.53974e-010 3.3384e-011 -1.25048e-011
381
root  -0.630658 39.008 -8.2714 -177.986 -73.1984 166.923
RightUpLeg  -13.7483 5.05534 -7.81833
RightLeg  49.7057 1.17487 1.13291
RightFoot  -1.62961 -0.610718 7.05188
RightToes  2.91037e-010 0 -3.6325e-017
Spine  12.5964 -0.246215 -1.47626
Spine1  6.17263 -0.377459 -3.0266
HEad  -8.46033 -5.05385 -0.131622
LeftShoulder1  0.840869 1.1173 -29.1348
LeftArm  9.97169 8.64687 -40.122
LeftForeArm  14.2022 -26.0581 -4.83786
LeftHand  -0.0562993 2.19515 1.5735
RightShoulder  -0.384906 -4.61902 27.4903
RightArm  26.9704 -5.34532 46.1731
RightForeArm  -5.6502 17.3772 6.69005
RightHand  -0.596119 3.64165 -7.90937
LeftUpLeg  0.0370561 5.59795 -7.19773
LeftLeg  18.2151 -3.49019 -1.69669
LeftFoot  -6.5236 -0.372092 9.76565
LeftToes  -7.53974e-010 3.3384e-011 -1.25048e-011
382
root  -1.74816 39.0755 -8.45619 -177.419 -73.241 166.394
RightUpLeg  -14.4812 4.13974 -7.56426
RightLeg  40.704 1.37071 0.983375
RightFoot  -1.68906 -0.645957 7.49647
RightToes  2.91037e-010 0 -3.6325e-017
Spine  12.0213 -0.497969 -1.71884
Spine1  6.22163 -0.624816 -2.72906
HEad  -8.56456 -5.9316 0.56955
LeftShoulder1  0.800056 1.22414 -28.993
LeftArm  8.71043 8.03585 -39.8245
LeftForeArm  15.1915 -27.7223 -5.15952
LeftHand  -0.0551957 1.92867 1.54098
RightShoulder  -0.377091 -4.59703 27.4288
RightArm  27.4021 -5.94754 45.6833
RightForeArm  -5.76255 17.3097 6.76282
RightHand  -0.605388 3.90104 -7.8084
LeftUpLeg  2.57868 5.74936 -7.29796
LeftLeg  16.8617 -3.50476 -1.87904
LeftFoot  -7.74913 -0.273281 10.168
LeftToes  -7.53974e-010 3.3384e-011 -1.25048e-011
383
root  -2.82845 39.0667 -8.63556 -176.099 -72.84 164.94
RightUpLeg  -14.5097 2.61877 -7.42359
RightLeg  31.0657 1.69832 0.867771
RightFoot  -1.17698 -0.720797 8.00706
RightToes  2.91037e-010 0 -3.6325e-017
Spine  11.8796 -0.54283 -1.96654
Spine1  5.94525 -0.567672 -2.75637
HEad  -8.57879 -6.83467 0.845642
LeftShoulder1  0.820713 1.14743 -28.7158
LeftArm  7.32191 7.67608 -39.6683
LeftForeArm  15.8363 -29.0617 -5.43436
LeftHand  -0.0597486 2.29667 1.78057
RightShoulder  -0.441961 -4.77413 27.8619
RightArm  27.1871 -6.04188 45.0455
RightForeArm  -4.36371 16.6657 6.97735
RightHand  -0.524593 3.00713 -7.47927
LeftUpLeg  4.95271 5.92685 -7.78713
LeftLeg  15.9611 -3.11253 -1.96126
LeftFoot  -9.06967 -0.149528 10.2698
LeftToes  -7.53974e-010 3.3384e-011 -1.25048e-011
384
root  -3.91982 39.0433 -8.83389 -175.2 -72.3885 163.85
RightUpLeg  -13.8031 -1.13676 -6.63824
RightLeg  21.4284 1.67968 0.464152
RightFoot  -0.511524 -0.750339 7.85801
RightToes  2.91037e-010 0 -3.6325e-017
Spine  11.3904 -0.500855 -2.13676
Spine1  6.0783 -0.544053 -2.1521
HEad  -8.58413 -8.33653 0.803192
LeftShoulder1  0.888503 0.979829 -29.1064
LeftArm  6.23345 7.36025 -39.2828
LeftForeArm  15.9511 -29.7069 -5.58047
LeftHand  -0.087015 1.70039 2.50763
RightShoulder  -0.379118 -4.60283 27.4562
RightArm  25.2077 -6.47434 45.1518
RightForeArm  -3.28873 15.5012 7.30612
RightHand  -0.559076 2.87024 -8.07006
LeftUpLeg  7.47698 5.97975 -8.28548
LeftLeg  14.868 -2.56411 -1.8776
LeftFoot  -10.3334 -0.0295953 10.4625
LeftToes  -7.53974e-010 3.3384e-011 -1.25048e-011
385
root  -5.0426 38.9495 -9.02658 -173.924 -71.7177 162.511
RightUpLeg  -13.128 -7.97883 -5.31746
RightLeg  12.9045 0.413149 0.286803
RightFoot  1.1997 -0.906022 8.31919
RightToes  2.91037e-010 0 -3.6325e-017
Spine  10.7709 -0.602138 -1.90368
Spine1  6.08335 -0.473444 -2.36664
HEad  -8.188 -10.2271 1.03708
LeftShoulder1  0.894805 0.975181 -29.2938
LeftArm  6.03328 6.84805 -38.905
LeftForeArm  15.6234 -29.2912 -5.50079
LeftHand  -0.0759377 1.63869 2.11175
RightShoulder  -0.336363 -4.47727 27.408
RightArm  23.6281 -6.7786 45.1432
RightForeArm  -1.99288 14.3877 7.59906
RightHand  -0.517701 2.86869 -7.49636
LeftUpLeg  9.74152 6.08921 -8.99462
LeftLeg  14.0694 -1.89488 -1.86815
LeftFoot  -11.7388 0.107605 10.6767
LeftToes  -7.53974e-010 3.3384e-011 -1.25048e-011
386
root  -6.20958 38.8339 -9.24678 -173.438 -70.9876 161.839
RightUpLeg  -11.3966 -13.0558 -4.73973
RightLeg  5.39858 -5.32512 2.83751
RightFoot  3.36915 -1.18935 9.20104
RightToes  2.91037e-010 0 -3.6325e-017
Spine  10.0135 -0.636776 -1.50212
Spine1  6.5769 -0.388591 -2.44414
HEad  -8.24154 -12.9522 1.51816
LeftShoulder1  0.880027 1.02319 -29.3794
LeftArm  6.26963 6.27805 -38.9725
LeftForeArm  14.8777 -27.9987 -5.24047
LeftHand  -0.0723885 1.91061 2.1173
RightShoulder  -0.400212 -4.65528 27.7423
RightArm  23.0917 -6.60888 44.7054
RightForeArm  -1.46766 13.5379 7.90558
RightHand  -0.519638 2.9478 -7.4531
LeftUpLeg  12.2626 6.14568 -9.63737
LeftLeg  13.1811 -0.841062 -1.65635
LeftFoot  -13.1895 0.249468 10.5207
LeftToes  -7.53974e-010 3.3384e-011 -1.25048e-011
387
root  -7.42896 38.6901 -9.51131 -173.794 -70.2828 162.364
RightUpLeg  -9.28327 -11.1635 -4.89485
RightLeg  -0.890111 -19.9653 6.81581
RightFoot  7.05865 -1.17174 7.90228
RightToes  2.91037e-010 0 -3.6325e-017
Spine  8.52436 -0.767781 -0.920353
Spine1  7.53361 -0.467662 -2.31223
HEad  -8.78408 -16.4386 1.61206
LeftShoulder1  0.826475 1.13341 -28.7592
LeftArm  6.83078 6.27557 -39.8698
LeftForeArm  13.602 -26.0712 -4.85688
LeftHand  -0.0677351 2.28542 2.12237
RightShoulder  -0.468839 -4.83824 28.2416
RightArm  23.3481 -6.34343 44.1576
RightForeArm  -0.899956 13.2633 8.04458
RightHand  -0.469687 2.44538 -7.15955
LeftUpLeg  14.3111 6.16943 -10.007
LeftLeg  12.81 0.0184499 -1.26309
LeftFoot  -14.7773 0.400062 10.3247
LeftToes  -7.53974e-010 3.3384e-011 -1.25048e-011
